{"title":"Reclaim 2014 720p BRRip x264 RmD","uid":11382348,"size":1656321413,"categoryP":"video","categoryS":"hd___movies","magnet":"?xt=urn:btih:85e69d990d9464e671aeceb5e54372200f60891e&amp;dn=Reclaim+2014+720p+BRRip+x264+RmD&amp;tr=udp%3A%2F%2Ftracker.openbittorrent.com%3A80&amp;tr=udp%3A%2F%2Fopen.demonii.com%3A1337&amp;tr=udp%3A%2F%2Ftracker.coppersurfer.tk%3A6969&amp;tr=udp%3A%2F%2Fexodus.desync.com%3A6969","seeders":1,"leechers":0,"uploader":"RajMahal","files":-1,"time":1415227813,"description":"Screens : \n &lt;a href=&quot;\nhttp://s7.postimg.org/45q1jhsjv/vlcsnap_2014_11_05_22h43m01s100.png&quot; rel=&quot;nofollow&quot; target=&quot;_NEW&quot;&gt;\nhttp://s7.postimg.org/45q1jhsjv/vlcsnap_2014_11_05_22h43m01s100.png&lt;/a&gt;\n &lt;a href=&quot;\nhttp://s7.postimg.org/gtae9qwuj/vlcsnap_2014_11_05_22h43m18s3.png&quot; rel=&quot;nofollow&quot; target=&quot;_NEW&quot;&gt;\nhttp://s7.postimg.org/gtae9qwuj/vlcsnap_2014_11_05_22h43m18s3.png&lt;/a&gt;\n &lt;a href=&quot;\nhttp://s7.postimg.org/pqv473paj/vlcsnap_2014_11_05_22h43m40s13.png&quot; rel=&quot;nofollow&quot; target=&quot;_NEW&quot;&gt;\nhttp://s7.postimg.org/pqv473paj/vlcsnap_2014_11_05_22h43m40s13.png&lt;/a&gt;\n &lt;a href=&quot;\nhttp://s7.postimg.org/4jrdj3cnf/vlcsnap_2014_11_05_22h44m00s200.png&quot; rel=&quot;nofollow&quot; target=&quot;_NEW&quot;&gt;\nhttp://s7.postimg.org/4jrdj3cnf/vlcsnap_2014_11_05_22h44m00s200.png&lt;/a&gt;\n &lt;a href=&quot;\nhttp://s7.postimg.org/l3p25c1xn/vlcsnap_2014_11_05_22h44m40s98.png&quot; rel=&quot;nofollow&quot; target=&quot;_NEW&quot;&gt;\nhttp://s7.postimg.org/l3p25c1xn/vlcsnap_2014_11_05_22h44m40s98.png&lt;/a&gt;\n\n\n\nGeneral\nComplete name                            : E:Reclaim 2014 720p BRRip x264 RmD.mp4\nFormat                                   : MPEG-4\nFormat profile                           : Base Media\nCodec ID                                 : isom\nFile size                                : 1.54 GiB\nDuration                                 : 1h 36mn\nOverall bit rate                         : 2 299 Kbps\nEncoded date                             : UTC 2014-11-05 21:40:09\nTagged date                              : UTC 2014-11-05 21:40:09\n\nVideo\nID                                       : 1\nFormat                                   : AVC\nFormat/Info                              : Advanced Video Codec\nFormat profile                           : &lt;a class=&quot;__cf_email__&quot; href=&quot;/cdn-cgi/l/email-protection&quot; data-cfemail=&quot;e5ad8c828da5a9d6cbd4&quot;&gt;[email&amp;#160;protected]&lt;/a&gt;&lt;script cf-hash='f9e31' type=&quot;text/javascript&quot;&gt;\n/* &lt;![CDATA[ */!function(){try{var t=&quot;currentScript&quot;in document?document.currentScript:function(){for(var t=document.getElementsByTagName(&quot;script&quot;),e=t.length;e--;)if(t[e].getAttribute(&quot;cf-hash&quot;))return t[e]}();if(t&amp;&amp;t.previousSibling){var e,r,n,i,c=t.previousSibling,a=c.getAttribute(&quot;data-cfemail&quot;);if(a){for(e=&quot;&quot;,r=parseInt(a.substr(0,2),16),n=2;a.length-n;n+=2)i=parseInt(a.substr(n,2),16)^r,e+=String.fromCharCode(i);e=document.createTextNode(e),c.parentNode.replaceChild(e,c)}}}catch(u){}}();/* ]]&gt; */&lt;/script&gt;\nFormat settings, CABAC                   : No\nFormat settings, ReFrames                : 4 frames\nCodec ID                                 : avc1\nCodec ID/Info                            : Advanced Video Coding\nDuration                                 : 1h 36mn\nBit rate                                 : 1 849 Kbps\nMaximum bit rate                         : 11.1 Mbps\nWidth                                    : 1 280 pixels\nHeight                                   : 688 pixels\nDisplay aspect ratio                     : 1.85:1\nFrame rate mode                          : Constant\nFrame rate                               : 23.976 fps\nColor space                              : YUV\nChroma subsampling                       : 4:2:0\nBit depth                                : 8 bits\nScan type                                : Progressive\nBits/(Pixel*Frame)                       : 0.088\nStream size                              : 1.24 GiB (80%)\nWriting library                          : x264 core 142 r2431 ac76440\nEncoding settings                        : cabac=0 / ref=3 / deblock=0:0:0 / analyse=0x3:0x133 / me=hex / subme=4 / psy=1 / psy_rd=1.00:0.00 / mixed_ref=1 / me_range=16 / chroma_me=1 / trellis=0 / 8x8dct=1 / cqm=0 / deadzone=21,11 / fast_pskip=1 / chroma_qp_offset=0 / threads=6 / lookahead_threads=1 / sliced_threads=0 / nr=0 / decimate=1 / interlaced=0 / bluray_compat=0 / constrained_intra=0 / bframes=3 / b_pyramid=2 / b_adapt=1 / b_bias=0 / direct=3 / weightb=0 / open_gop=0 / weightp=0 / keyint=240 / keyint_min=23 / scenecut=40 / intra_refresh=0 / rc_lookahead=40 / rc=2pass / mbtree=1 / bitrate=1849 / ratetol=1.0 / qcomp=0.60 / qpmin=10 / qpmax=51 / qpstep=4 / cplxblur=20.0 / qblur=0.5 / ip_ratio=1.40 / aq=1:1.00\nEncoded date                             : UTC 2014-11-05 21:37:09\nTagged date                              : UTC 2014-11-05 21:41:04\n\nAudio\nID                                       : 2\nFormat                                   : AC-3\nFormat/Info                              : Audio Coding 3\nMode extension                           : CM (complete main)\nFormat settings, Endianness              : Big\nCodec ID                                 : ac-3\nDuration                                 : 1h 36mn\nBit rate mode                            : Constant\nBit rate                                 : 448 Kbps\nChannel(s)                               : 6 channels\nChannel positions                        : Front: L C R, Side: L R, LFE\nSampling rate                            : 44.1 KHz\nBit depth                                : 16 bits\nCompression mode                         : Lossy\nStream size                              : 308 MiB (19%)\nLanguage                                 : English\nEncoded date                             : UTC 2014-11-05 21:40:49\nTagged date                              : UTC 2014-11-05 21:41:04","torrent":{"xt":"urn:btih:85e69d990d9464e671aeceb5e54372200f60891e","amp;dn":"Reclaim+2014+720p+BRRip+x264+RmD","amp;tr":["udp%3A%2F%2Ftracker.openbittorrent.com%3A80","udp%3A%2F%2Fopen.demonii.com%3A1337","udp%3A%2F%2Ftracker.coppersurfer.tk%3A6969","udp%3A%2F%2Fexodus.desync.com%3A6969"],"infoHash":"85e69d990d9464e671aeceb5e54372200f60891e","infoHashBuffer":{"type":"Buffer","data":[133,230,157,153,13,148,100,230,113,174,206,181,229,67,114,32,15,96,137,30]},"announce":[],"urlList":[]}}